<?xml version="1.0" encoding="UTF-8" standalone="no"?>
<!-- Created with Inkscape (http://www.inkscape.org/) -->

<svg
   xmlns:dc="http://purl.org/dc/elements/1.1/"
   xmlns:cc="http://creativecommons.org/ns#"
   xmlns:rdf="http://www.w3.org/1999/02/22-rdf-syntax-ns#"
   xmlns:svg="http://www.w3.org/2000/svg"
   xmlns="http://www.w3.org/2000/svg"
   xmlns:sodipodi="http://sodipodi.sourceforge.net/DTD/sodipodi-0.dtd"
   xmlns:inkscape="http://www.inkscape.org/namespaces/inkscape"
   version="1.1"
   width="93"
   height="40"
   id="svg3939"
   inkscape:version="0.48.5 r10040"
   sodipodi:docname="army.svg">
  <sodipodi:namedview
     pagecolor="#ffffff"
     bordercolor="#666666"
     borderopacity="1"
     objecttolerance="10"
     gridtolerance="10"
     guidetolerance="10"
     inkscape:pageopacity="0"
     inkscape:pageshadow="2"
     inkscape:window-width="1598"
     inkscape:window-height="1773"
     id="namedview4185"
     showgrid="false"
     inkscape:zoom="12.680684"
     inkscape:cx="46.5"
     inkscape:cy="22.925353"
     inkscape:window-x="1600"
     inkscape:window-y="25"
     inkscape:window-maximized="0"
     inkscape:current-layer="svg3939" />
  <metadata
     id="metadata3945">
    <rdf:RDF>
      <cc:Work
         rdf:about="">
        <dc:format>image/svg+xml</dc:format>
        <dc:type
           rdf:resource="http://purl.org/dc/dcmitype/StillImage" />
        <dc:title />
      </cc:Work>
    </rdf:RDF>
  </metadata>
  <defs
     id="defs3943" />
  <g
     id="g4198">
    <path
       d="M 10.559916,15.982532 C 7.7186876,13.591794 7.6594206,13.585519 6.4352086,15.545794 c -0.751112,1.202723 -2.081486,1.865029 -3.365748,1.675589 -2.480552,-0.365903 -3.68692,-2.813263 -1.386732,-2.813263 0.858154,0 2.310776,-1.145402 3.228049,-2.545337 1.439585,-2.197085 1.483262,-2.89009 0.319232,-5.0651 C 4.2484566,4.963634 4.1702566,3.819399 4.9426506,2.59302 6.4711706,0.16608818 33.731591,-0.48714482 34.640479,1.8813797 35.772506,4.831395 34.152667,6.357335 29.190313,7.015614 c -4.538091,0.601999 -4.901199,0.856294 -4.901199,3.432443 0,3.326917 -4.947416,7.960064 -8.5,7.960064 -1.290602,0 -3.643741,-1.091515 -5.229198,-2.425589 z"
       id="fill_area"
       style="fill:#b6b6b6"
       inkscape:connector-curvature="0" />
    <path
       d="m 0.9557816,16.741453 c -1.154539,-1.154539 -0.726116,-2.333332 0.848032,-2.333332 0.833084,0 2.392812,-1.443942 3.466062,-3.20876 C 7.0662016,8.245538 7.0937946,7.849775 5.6171646,6.218118 4.3379656,4.804619 4.2596716,4.148524 5.2305866,2.978643 6.1696436,1.8471477 9.6320486,1.4426367 20.370217,1.2098847 L 34.292351,0.90812068 34.290751,3.717138 c -9.36e-4,1.623199 -0.425006,2.547349 -1.004556,2.189168 -0.551616,-0.340918 -3.026616,-0.316381 -5.5,0.05453 -4.289075,0.64318 -4.497081,0.827652 -4.497081,3.988248 0,2.388964 -0.735396,3.892338 -2.634859,5.386457 -3.361496,2.644152 -6.389712,2.627693 -9.79799,-0.05326 l -2.7025664,-2.12584 -1.488996,2.12584 c -1.446972,2.06584 -4.358165,2.809927 -5.708921,1.459172 z M 15.108665,13.15812 c -0.205359,-1.445957 -1.123594,-2.364192 -2.569551,-2.569551 -2.6734044,-0.379684 -2.8485494,0.500679 -0.595012,2.99081 2.241017,2.476296 3.551309,2.301873 3.164563,-0.421259 z m 4.351708,0.595012 c 2.414024,-2.18466 2.312141,-3.345012 -0.293704,-3.345012 -1.787415,0 -1.922939,0.240391 -0.858556,1.522892 1.056784,1.273347 0.994917,1.419678 -0.377555,0.893011 -1.102274,-0.422982 -1.641444,-0.102028 -1.641444,0.977108 0,2.046024 0.871975,2.032825 3.171259,-0.048 z M 15.108665,6.65812 c 0.175753,-1.2375 -0.08675,-2.25 -0.583333,-2.25 -1.754633,0 -2.203594,1.335569 -0.977542,2.907991 1.070946,1.373498 1.022813,1.421631 -0.350685,0.350685 -1.572422,-1.226052 -2.907991,-0.777091 -2.907991,0.977542 0,0.496586 1.0125,0.759086 2.25,0.583333 1.445957,-0.205359 2.364192,-1.123594 2.569551,-2.569551 z m 6.180449,1.916667 c 0,-1.689986 -1.36033,-2.114735 -2.907991,-0.907991 -1.373498,1.070946 -1.421631,1.022813 -0.350685,-0.350685 1.206744,-1.547661 0.781995,-2.90799 -0.907991,-2.90799 -0.991325,0 -1.121276,3.378724 -0.166666,4.333332 0.954609,0.954611 4.333333,0.82466 4.333333,-0.166666 z M 11.016243,4.40812 l 2.542588,-2 -3.075841,0 c -3.1935424,0 -4.7611394,1.273131 -3.6938754,3 0.859534,1.390755 1.328953,1.279706 4.2271284,-1 z m 18.522871,0.358152 c 6.346761,-1.049054 4.158894,-2.358152 -3.94113,-2.358152 -6.97726,0 -7.510959,0.136274 -5.75,1.468197 2.151972,1.627669 4.129369,1.809257 9.69113,0.889955 z"
       id="edge"
       style="fill:#010101"
       inkscape:connector-curvature="0" />
  </g>
</svg>
