<?xml version="1.0" encoding="UTF-8" standalone="no"?>
<!-- Created with Inkscape (http://www.inkscape.org/) -->

<svg
   xmlns:dc="http://purl.org/dc/elements/1.1/"
   xmlns:cc="http://creativecommons.org/ns#"
   xmlns:rdf="http://www.w3.org/1999/02/22-rdf-syntax-ns#"
   xmlns:svg="http://www.w3.org/2000/svg"
   xmlns="http://www.w3.org/2000/svg"
   xmlns:sodipodi="http://sodipodi.sourceforge.net/DTD/sodipodi-0.dtd"
   xmlns:inkscape="http://www.inkscape.org/namespaces/inkscape"
   version="1.1"
   width="93"
   height="40"
   id="svg3939"
   inkscape:version="0.48.5 r10040"
   sodipodi:docname="army.svg">
  <sodipodi:namedview
     pagecolor="#ffffff"
     bordercolor="#666666"
     borderopacity="1"
     objecttolerance="10"
     gridtolerance="10"
     guidetolerance="10"
     inkscape:pageopacity="0"
     inkscape:pageshadow="2"
     inkscape:window-width="3200"
     inkscape:window-height="1775"
     id="namedview4185"
     showgrid="false"
     inkscape:zoom="20.135539"
     inkscape:cx="46.5"
     inkscape:cy="23.184115"
     inkscape:window-x="0"
     inkscape:window-y="25"
     inkscape:window-maximized="0"
     inkscape:current-layer="svg3939" />
  <metadata
     id="metadata3945">
    <rdf:RDF>
      <cc:Work
         rdf:about="">
        <dc:format>image/svg+xml</dc:format>
        <dc:type
           rdf:resource="http://purl.org/dc/dcmitype/StillImage" />
        <dc:title />
      </cc:Work>
    </rdf:RDF>
  </metadata>
  <defs
     id="defs3943" />
  <g
     id="g4198">
    <path
       d="M 10.559916,13.892739 C 7.7186876,11.502001 8.8726026,8.484551 5.6466077,14.244602 c -0.6487747,1.158395 -2.2786363,2.41705 -3.5628983,2.22761 -2.48055204,-0.365903 -1.95199786,-1.630361 0.3481901,-1.630361 0.858154,0 1.5616051,-1.579133 2.4788781,-2.979068 1.439585,-2.197085 2.9816039,-2.89009 1.8175739,-5.0651 C 5.7467985,4.963634 4.8405674,4.7262901 5.6129614,3.4999111 7.1414814,1.0729793 27.343923,1.4843577 32.314106,1.4870792 c 3.159758,0.00173 1.838561,3.1747637 -3.123793,3.8330427 -4.538091,0.601999 -6.360111,0.5802836 -6.360111,3.1564326 0,3.3269175 -3.488504,8.3937945 -7.041088,8.3937945 -1.290602,0 -3.643741,-1.643536 -5.229198,-2.97761 z"
       id="fill_area"
       style="fill:#b6b6b6"
       inkscape:connector-curvature="0"
       sodipodi:nodetypes="ssssssssssss" />
    <path
       d="m 0.9557816,16.741453 c -1.154539,-1.154539 -0.726116,-2.333332 0.848032,-2.333332 0.833084,0 2.392812,-1.443942 3.466062,-3.20876 C 7.0662016,8.245538 7.0937946,7.849775 5.6171646,6.218118 4.3379656,4.804619 4.2596716,4.148524 5.2305866,2.978643 6.1696436,1.8471477 9.6320486,1.4426367 20.370217,1.2098847 L 34.292351,0.90812068 34.290751,3.717138 c -9.36e-4,1.623199 -0.425006,2.547349 -1.004556,2.189168 -0.551616,-0.340918 -3.026616,-0.316381 -5.5,0.05453 -4.289075,0.64318 -4.497081,0.827652 -4.497081,3.988248 0,2.388964 -0.735396,3.892338 -2.634859,5.386457 -3.361496,2.644152 -6.389712,2.627693 -9.79799,-0.05326 L 7.9565484,11.776389 6.7829927,13.783939 C 5.5101259,15.961376 2.3065376,18.092208 0.9557816,16.741453 z M 15.103736,12.722678 c 0.251167,-2.323891 -0.295428,-2.8728777 -2.287683,-2.680929 -2.687785,0.258962 -3.0363639,0.488575 -2.098793,2.237651 0.297453,0.554912 0.639969,1.704858 2.57682,2.514109 2.347319,0.980752 1.661882,-0.703565 1.809656,-2.070831 z m 4.29223,1.465688 c 3.397466,-1.869951 2.100538,-4.166537 -0.505307,-4.166537 -3.090429,-0.1555744 -2.753785,0.96515 -2.706897,2.550195 0,2.046024 0.06738,3.347238 3.212204,1.616342 z M 15.024261,7.4652033 c 0.175753,-1.2375 -0.107698,-2.9597409 -0.604281,-2.9597409 -1.083718,-0.032348 -4.5685052,0.8197979 -4.536873,3.824051 0,0.496586 1.931098,0.8625907 3.168598,0.6868377 1.445957,-0.205359 1.767197,-0.1051908 1.972556,-1.5511478 z m 6.522381,1.0738506 C 22.102224,5.61861 18.801532,4.1278692 16.702073,4.7823615 c -0.147047,0 -1.012646,2.696437 -0.05804,3.651045 0.954609,0.9546105 4.902605,1.0969734 4.902605,0.1056474 z m -10.86925,-4.07795 C 13.096293,2.8586094 12.724955,3.3496547 15.754591,2.5578306 13.095217,2.1874146 10.48299,2.44755 10.48299,2.44755 7.2920153,2.5755869 5.7218506,3.681251 6.7891146,5.40812 7.6486486,6.798875 8.2584918,6.0635984 10.677392,4.4611039 z M 29.539114,4.766272 c 6.400093,-0.6486159 4.710915,-3.146753 -3.94113,-2.9496027 -6.975449,0.1589464 -10.993742,0.3901051 -5.644648,1.9191783 2.594288,0.741594 0.514743,1.9497264 9.585778,1.0304244 z"
       id="edge"
       style="fill:#010101"
       inkscape:connector-curvature="0"
       sodipodi:nodetypes="sssssscsssssscssssssssccssccssccsczcsszssss" />
  </g>
</svg>
