<?xml version="1.0" encoding="UTF-8" standalone="no"?>
<!-- Created with Inkscape (http://www.inkscape.org/) -->

<svg
   xmlns:dc="http://purl.org/dc/elements/1.1/"
   xmlns:cc="http://creativecommons.org/ns#"
   xmlns:rdf="http://www.w3.org/1999/02/22-rdf-syntax-ns#"
   xmlns:svg="http://www.w3.org/2000/svg"
   xmlns="http://www.w3.org/2000/svg"
   xmlns:sodipodi="http://sodipodi.sourceforge.net/DTD/sodipodi-0.dtd"
   xmlns:inkscape="http://www.inkscape.org/namespaces/inkscape"
   id="svg3939"
   version="1.1"
   inkscape:version="0.48.5 r10040"
   width="93"
   height="40"
   sodipodi:docname="fleet.svg">
  <metadata
     id="metadata3945">
    <rdf:RDF>
      <cc:Work
         rdf:about="">
        <dc:format>image/svg+xml</dc:format>
        <dc:type
           rdf:resource="http://purl.org/dc/dcmitype/StillImage" />
        <dc:title></dc:title>
      </cc:Work>
    </rdf:RDF>
  </metadata>
  <defs
     id="defs3943" />
  <sodipodi:namedview
     pagecolor="#ffffff"
     bordercolor="#666666"
     borderopacity="1"
     objecttolerance="10"
     gridtolerance="10"
     guidetolerance="10"
     inkscape:pageopacity="0"
     inkscape:pageshadow="2"
     inkscape:window-width="1598"
     inkscape:window-height="1773"
     id="namedview3941"
     showgrid="false"
     inkscape:zoom="8.8153566"
     inkscape:cx="46.5"
     inkscape:cy="61.440785"
     inkscape:window-x="0"
     inkscape:window-y="25"
     inkscape:window-maximized="0"
     inkscape:current-layer="svg3939" />
  <g
     id="g4202">
    <path
       sodipodi:nodetypes="sssssscscsssssssssssss"
       style="fill:#b6b6b6"
       d="M 10.409054,29.035755 C 9.49881,28.029947 8.754066,26.714846 8.754066,26.113306 c 0,-0.601538 -1.6875,-1.632965 -3.75,-2.29206 -2.0625,-0.659095 -4.128424,-1.544919 -4.590943,-1.968496 -0.462518,-0.423578 3.002121,-4.825297 7.699199,-9.781599 4.697079,-4.956303 8.6786,-8.596087 8.847826,-8.088409 0.396718,1.190154 5.775761,-1.278757 5.786116,-2.655753 0.0043,-0.570629 1.920302,-1.104257 4.257802,-1.18584 l 4.25,-0.148334 -2.773713,1.480202 c -1.525542,0.814112 -3.325542,1.201869 -4,0.861683 -0.674458,-0.340185 -0.534908,-0.02265 0.310112,0.705639 0.845019,0.728286 1.401434,1.999157 1.236478,2.824157 -0.164957,0.825 1.017559,2.244414 2.627813,3.154254 4.397084,2.48448 6.508902,6.435771 6.793041,12.710041 0.379736,8.385199 -0.70414,9.135705 -13.193731,9.135705 -8.601939,0 -10.44795,-0.285004 -11.845012,-1.828741 z m 0.345012,-5.56427 c 0,-0.216157 -0.675,-0.652034 -1.5,-0.968615 -0.825,-0.316584 -1.5,-0.139729 -1.5,0.393011 0,0.532737 0.675,0.968615 1.5,0.968615 0.825,0 1.5,-0.176856 1.5,-0.393011 z"
       id="fill_area"
       inkscape:connector-curvature="0" />
    <path
       sodipodi:nodetypes="sssssssssscsssssssscssssssssssssssssssssssssssssssssssssssssscsssscssscccssssssssssssssssssssssssssss"
       style="fill:#010101"
       d="M 10.199831,27.422066 C 9.319643,26.078729 6.721769,24.353729 4.426778,23.588732 2.131786,22.823735 0.254066,21.951109 0.254066,21.649562 c 0,-0.301547 3.440685,-4.1736 7.645966,-8.604563 4.205281,-4.430963 7.882254,-8.646743 8.171052,-9.368399 0.330682,-0.826319 0.554316,-0.633342 0.604035,0.52123 0.04718,1.095735 0.581854,1.598901 1.328947,1.250643 0.6875,-0.32048 2.0375,-0.860464 3,-1.199965 0.9625,-0.339501 1.75,-1.369168 1.75,-2.28815 0,-1.275801 1.004902,-1.705949 4.25,-1.819209 l 4.25,-0.148334 -2.773713,1.480202 c -1.525542,0.814112 -3.213042,1.208682 -3.75,0.876824 -0.536958,-0.331858 -0.976287,-0.126821 -0.976287,0.455638 0,0.58246 0.7301,1.059017 1.622445,1.059017 1.307099,0 1.387548,0.283033 0.41391,1.456195 -1.231408,1.483756 -0.530733,3.967381 0.874291,3.099029 1.528958,-0.944948 7.162185,6.118732 7.745306,9.71208 0.578177,3.562893 0.546411,3.601532 -3.286065,3.99708 l -3.869887,0.39941 4.317388,0.168103 c 3.986324,0.155213 4.264494,0.340636 3.627611,2.418103 -1.357565,4.428277 -2.241077,4.75 -13.044391,4.75 -9.876234,0 -10.428421,-0.112814 -11.954843,-2.44243 z m 23.358366,-1.189901 c 0.298664,-2.093996 0.100912,-2.123118 -11,-1.619948 -6.217272,0.28181 -11.472223,0.659452 -11.67767,0.839202 -0.205446,0.179752 -0.101195,1.036535 0.231669,1.903967 0.509036,1.326524 2.316374,1.532013 11.373539,1.293127 10.124614,-0.26704 10.786512,-0.411485 11.072462,-2.416348 z M 14.013416,22.836792 c -1.232357,-0.495512 -4.607357,-1.151665 -7.5,-1.458119 -4.103231,-0.434706 -4.74445,-0.332212 -2.916997,0.466256 1.288295,0.562896 2.750795,0.771015 3.25,0.46249 0.499206,-0.308528 0.907647,-0.0844 0.907647,0.498059 0,0.589179 1.885534,1.030895 4.25,0.995632 3.544926,-0.05287 3.878277,-0.212851 2.00935,-0.964318 z m 8.74065,0.0087 c 0,-0.60496 -1.117461,-0.750971 -2.75,-0.359324 -3.925986,0.94185 -4.057943,1.378376 -0.416667,1.378376 1.741667,0 3.166667,-0.458573 3.166667,-1.019052 z m 3.729167,-0.585114 c -0.332292,-0.332292 -1.194792,-0.367818 -1.916667,-0.07895 -0.797733,0.319226 -0.560776,0.556183 0.604167,0.604167 1.054166,0.04342 1.644791,-0.192928 1.3125,-0.525217 z m -0.346384,-2.429855 c 0.48553,-0.457349 0.600588,-1.566928 0.255685,-2.465733 -0.958127,-2.496839 -5.810328,-1.519795 -7.448092,1.499754 -1.303809,2.403836 -1.336558,2.411188 -0.851395,0.191126 0.439637,-2.011739 0.160734,-2.269124 -2.167205,-2 -1.931938,0.223345 -2.764178,0.961798 -3.005467,2.666775 -0.32915,2.325817 -0.247511,2.348251 6,1.648761 3.48353,-0.390026 6.730943,-1.083332 7.216474,-1.540683 z m -1.303836,-1.549312 c 0.04798,-1.164943 0.284941,-1.4019 0.604167,-0.604167 0.288871,0.721875 0.253344,1.584376 -0.07895,1.916667 -0.332292,0.332292 -0.568641,-0.258334 -0.525217,-1.3125 z M 12.12378,18.614544 c 1.172492,-4.37514 0.522291,-5.205863 -1.369714,-1.75 -2.547546,4.653249 -2.547546,2.993603 0,-2 2.982438,-5.846061 2.502666,-5.91881 -3.049518,-0.462408 l -5.049518,4.962408 3.299518,0.618359 c 5.386752,1.009526 5.541162,0.975276 6.169232,-1.368359 z m 21.630286,0.309017 c 0,-3.028283 -1.495994,-3.224409 -4.028954,-0.528197 l -2.319674,2.46918 3.174314,0 c 2.475475,0 3.174314,-0.427315 3.174314,-1.940983 z m -3.168708,-2.379436 2.179921,-2.320419 -2.505607,-2.353895 -2.505606,-2.353894 0,4.674313 c 0,2.570873 0.146559,4.674314 0.325686,4.674314 0.179127,0 1.30665,-1.044189 2.505606,-2.320419 z m -4.448509,-2.726337 c 1.736664,-1.610812 -0.284123,-3.953243 -3.410415,-3.953243 -1.699721,0 -2.878748,0.342463 -2.620061,0.761028 0.258688,0.418565 -0.225294,1.656065 -1.075515,2.749999 -1.252295,1.611261 -1.431318,1.656642 -0.942709,0.238972 0.440569,-1.278288 0.07251,-1.75 -1.365468,-1.75 -1.082738,0 -1.975506,0.5625 -1.983928,1.25 -0.01021,0.833333 -0.338437,0.75 -0.984687,-0.25 -1.107134,-1.713168 -1.3004,-0.946404 -0.371557,1.474121 0.523821,1.365055 1.564309,1.526175 6.25,0.967814 3.091856,-0.368434 6.018809,-1.038345 6.50434,-1.488691 z m -1.303836,-1.536577 c 0.04798,-1.164943 0.284941,-1.4019 0.604167,-0.604167 0.288871,0.721875 0.253344,1.584375 -0.07895,1.916667 -0.332292,0.332291 -0.568641,-0.258334 -0.525217,-1.3125 z M 19.254066,9.864545 c 0.339919,-0.55 1.620048,-1 2.844731,-1 1.560031,0 2.226698,-0.598794 2.226698,-2 0,-1.431349 -0.666667,-2 -2.344732,-2 -1.289602,0 -2.133077,0.342463 -1.87439,0.761028 0.258688,0.418566 -0.225294,1.656066 -1.075515,2.75 -1.343268,1.728311 -1.463348,1.750599 -0.916269,0.170069 0.50216,-1.450758 0.177258,-1.754357 -1.605252,-1.5 -3.277542,0.467693 -3.617684,3.818902 -0.387612,3.818902 1.382869,0 2.792422,-0.449999 3.132341,-0.999999 z"
       id="edge"
       inkscape:connector-curvature="0" />
  </g>
</svg>
