<?xml version="1.0" encoding="UTF-8" standalone="no"?>
<!-- Created with Inkscape (http://www.inkscape.org/) -->

<svg
   xmlns:dc="http://purl.org/dc/elements/1.1/"
   xmlns:cc="http://creativecommons.org/ns#"
   xmlns:rdf="http://www.w3.org/1999/02/22-rdf-syntax-ns#"
   xmlns:svg="http://www.w3.org/2000/svg"
   xmlns="http://www.w3.org/2000/svg"
   xmlns:sodipodi="http://sodipodi.sourceforge.net/DTD/sodipodi-0.dtd"
   xmlns:inkscape="http://www.inkscape.org/namespaces/inkscape"
   id="svg3939"
   version="1.1"
   inkscape:version="0.48.5 r10040"
   width="93"
   height="40"
   sodipodi:docname="fleet.svg">
  <metadata
     id="metadata3945">
    <rdf:RDF>
      <cc:Work
         rdf:about="">
        <dc:format>image/svg+xml</dc:format>
        <dc:type
           rdf:resource="http://purl.org/dc/dcmitype/StillImage" />
        <dc:title />
      </cc:Work>
    </rdf:RDF>
  </metadata>
  <defs
     id="defs3943" />
  <sodipodi:namedview
     pagecolor="#ffffff"
     bordercolor="#666666"
     borderopacity="1"
     objecttolerance="10"
     gridtolerance="10"
     guidetolerance="10"
     inkscape:pageopacity="0"
     inkscape:pageshadow="2"
     inkscape:window-width="3200"
     inkscape:window-height="1775"
     id="namedview3941"
     showgrid="false"
     inkscape:zoom="19.79591"
     inkscape:cx="46.5"
     inkscape:cy="25.200917"
     inkscape:window-x="0"
     inkscape:window-y="25"
     inkscape:window-maximized="0"
     inkscape:current-layer="svg3939" />
  <g
     id="g4202">
    <path
       sodipodi:nodetypes="ccsssccsscssc"
       style="fill:#b6b6b6"
       d="M 11.087731,28.285638 C 9.5439264,24.64738 8.1579964,24.786486 5.004066,23.821246 2.941566,23.162151 0.875642,22.276327 0.413123,21.85275 -0.049395,21.429172 4.4153996,17.420371 9.1124776,12.464069 13.809557,7.5077663 16.117657,3.991433 16.210031,4.5185396 c 0.646757,3.690543 3.525411,0.2929161 6.821992,-0.5840021 1.437908,0.2167376 1.467537,0.3275424 2.137644,1.0369624 -0.164957,0.825 -1.5924,4.0961082 1.913416,3.9400906 1.566052,-0.069693 6.184165,4.3123915 7.400278,9.7452945 0.293049,1.309179 0.645149,2.858635 -7.46733,3.888836 9.891989,0.704501 8.322271,2.238656 7.918368,3.580226 -0.690618,2.293899 -6.435537,3.202596 -12.680333,3.202596 -8.601939,0 -9.769273,0.500832 -11.166335,-1.042905 z"
       id="fill_area"
       inkscape:connector-curvature="0" />
    <path
       sodipodi:nodetypes="sssssssssscsssssssscssssssssssssssssssssssssssssssssssssscsssscssscccssssssssccssssssssssssssss"
       style="fill:#010101"
       d="M 10.199831,27.422066 C 9.319643,26.078729 6.721769,24.353729 4.426778,23.588732 2.131786,22.823735 0.254066,21.951109 0.254066,21.649562 c 0,-0.301547 3.440685,-4.1736 7.645966,-8.604563 4.205281,-4.430963 7.882254,-8.646743 8.171052,-9.368399 0.330682,-0.826319 0.554316,-0.633342 0.604035,0.52123 0.04718,1.095735 0.581854,1.598901 1.328947,1.250643 0.6875,-0.32048 2.0375,-0.860464 3,-1.199965 0.9625,-0.339501 1.75,-1.369168 1.75,-2.28815 0,-1.275801 1.004902,-1.705949 4.25,-1.819209 l 4.25,-0.148334 -2.773713,1.480202 c -1.525542,0.814112 -3.213042,1.208682 -3.75,0.876824 -0.536958,-0.331858 -0.976287,-0.126821 -0.976287,0.455638 0,0.58246 0.7301,1.059017 1.622445,1.059017 1.307099,0 1.387548,0.283033 0.41391,1.456195 -1.231408,1.483756 -0.530733,3.967381 0.874291,3.099029 1.528958,-0.944948 7.162185,6.118732 7.745306,9.71208 0.578177,3.562893 0.546411,3.601532 -3.286065,3.99708 l -3.869887,0.39941 4.317388,0.168103 c 3.986324,0.155213 4.264494,0.340636 3.627611,2.418103 -1.357565,4.428277 -2.241077,4.75 -13.044391,4.75 -9.876234,0 -10.428421,-0.112814 -11.954843,-2.44243 z m 23.358366,-1.189901 c 1.334539,-2.808393 1.580221,-2.294102 -10.449407,-1.112255 -6.193836,0.608512 -12.664286,0.06806 -12.869733,0.247812 -0.205446,0.179752 0.540275,1.120232 0.873139,1.987664 0.509036,1.326524 2.709292,2.032091 11.766457,1.793205 10.124614,-0.26704 9.810345,-1.087291 10.679544,-2.916426 z M 14.013416,22.836792 c -1.232357,-0.495512 -4.607357,-1.651743 -7.5,-1.958197 -4.103231,-0.434706 -5.3874072,0.453625 -3.5599542,1.252093 1.288295,0.562896 3.1437133,0.878174 3.6429183,0.569649 0.499206,-0.308528 1.1576859,0.02276 1.1576859,0.605219 0,0.589179 2.1355729,1.138054 4.500039,1.102791 3.544926,-0.05287 3.628238,-0.820088 1.759311,-1.571555 z m 11.469537,-0.365833 c 0,-0.997878 -4.157492,0.204697 -5.836085,0.234605 -5.35119,0.09534 -4.022224,1.257473 -0.380948,1.409019 2.882207,0.119955 6.217033,-1.083145 6.217033,-1.643624 z m 0.653896,-2.640436 c 0.48553,-0.457349 0.755724,-1.36084 0.410821,-2.259645 -0.958127,-2.496839 -5.929744,-1.940202 -7.567508,1.079347 -1.303809,2.403836 -1.629068,2.803405 -0.887115,0.655484 1.225474,-3.547692 -1.482809,-2.591654 -2.345804,-2.32253 -1.856622,0.578985 -2.764178,0.81997 -3.005467,2.524947 -0.32915,2.325817 -0.06891,2.776889 6.178599,2.077399 3.48353,-0.390026 6.730943,-1.297651 7.216474,-1.755002 z m -1.303836,-1.549312 c 0.04798,-1.164943 0.284941,-1.4019 0.604167,-0.604167 0.288871,0.721875 0.253344,1.584376 -0.07895,1.916667 -0.332292,0.332292 -0.568641,-0.258334 -0.525217,-1.3125 z m -12.494914,0.404773 c 1.172492,-4.37514 0.02221,-5.420182 -1.869792,-1.964319 C 7.9207613,21.374914 7.2972413,20.312786 9.8447873,15.319183 12.827225,9.4731224 13.634942,7.7958148 8.3475052,13.50914 l -6.0139538,6.498361 3.4066775,0.04684 c 5.4800151,0.07535 5.9698001,0.975276 6.5978701,-1.368357 z m 20.910812,0.288092 c 0,-3.028283 -0.990839,-3.274924 -3.523799,-0.578712 l -1.764004,2.268169 2.592643,0.160214 c 1.777945,0.109869 2.69516,-0.58858 2.69516,-1.849671 z m -3.320254,-2.429951 1.757411,-1.74785 -1.83052,-2.320278 -2.101482,-2.40441 0,4.118643 c 0,2.570873 -0.317799,5.245831 -0.138672,5.245831 0.179127,0 1.071694,-1.657122 2.313263,-2.891936 z m -3.791808,-2.726337 c 1.736664,-1.610812 0.930352,-4.8462391 -3.196096,-4.3461613 -1.687375,0.2044904 -3.093067,0.7353813 -2.83438,1.1539463 0.258688,0.418565 -0.225294,1.656065 -1.075515,2.749999 -1.252295,1.611261 -1.612297,1.580679 -0.942709,0.238972 1.119246,-2.242724 -1.594501,-1.450497 -3.032479,-1.450497 -2.069143,-0.352043 -1.801136,1.044847 -1.420584,2.326164 0.523821,1.365055 1.311732,1.374629 5.997423,0.816268 3.091856,-0.368434 6.018809,-1.038345 6.50434,-1.488691 z m -1.303836,-1.536577 c 0.04798,-1.164943 0.284941,-1.4019 0.604167,-0.604167 0.288871,0.721875 0.253344,1.584375 -0.07895,1.916667 -0.332292,0.332291 -0.568641,-0.258334 -0.525217,-1.3125 z M 19.254066,9.864545 c 0.339919,-0.55 1.620048,-1 2.844731,-1 1.560031,0 1.907293,-0.6356837 2.226698,-2 0.535798,-2.2886252 0.226329,-3.3930739 -1.987534,-2.464358 -1.189202,0.4988706 -2.490275,0.806821 -2.231588,1.225386 0.258688,0.418566 -0.225294,1.656066 -1.075515,2.75 -1.343268,1.728311 -1.797547,1.5915893 -0.916269,0.170069 1.430876,-2.3080342 0.177258,-2.433034 -1.605252,-2.178677 -3.277542,0.467693 -3.617684,4.497579 -0.387612,4.497579 1.382869,0 2.792422,-0.449999 3.132341,-0.999999 z"
       id="edge"
       inkscape:connector-curvature="0" />
  </g>
</svg>
